# xmcd CD database file
#
# Track frame offsets:
#	182
#	14225
#	32037
#	43350
#	61240
#	75170
#	100477
#	117472
#	134312
#	152862
#	167247
#	182115
#
# Disc length: 2620 seconds
#
# Revision: 5
# Processed by: cddbd v1.5.1PL2 Copyright (c) Steve Scherf et al.
# Submitted via: EHedit 1.0
#
DISCID=a60a3a0c
DTITLE=Emmylou Harris - Elite Hotel
DYEAR=1975
DGENRE=Country
TTITLE0=Amarillo
TTITLE1=Together Again
TTITLE2=Feelin' Single -- Seein' Double
TTITLE3=Sin City
TTITLE4=One Of These Days
TTITLE5=Till I Gain Control Again
TTITLE6=Here, There And Everywhere
TTITLE7=Ooh Las Vegas
TTITLE8=Sweet Dreams
TTITLE9=Jambalaya
TTITLE10=Satan's Jewel Crown
TTITLE11=Wheels
EXTD=
EXTT0=Supporting vocals: Linda Ronstadt, Herb Pederson
EXTT1=Supporting vocals: Dianne Brooks, Fayssoux Starling
EXTT2=Supporting vocals: Bernie Leadon, Herb Pederson
EXTT3=Acoustic Guitars: Bernie Leadon, Brian Ahern\n
EXTT3=Supporting vocals: John Starling, Herb Pederson
EXTT4=Acoustic Guitars: Brian Ahern, Emmylou Harris\n
EXTT4=Supporting vocals: Jonathan Edwards, Herb Pederson
EXTT5=Acoustic Guitars: Rick Cunha, Brian Ahern\n
EXTT5=Supporting vocals: Linda Ronstadt, Jonathan Edwards, Fayssoux Starling
EXTT6=Acoustic Guitars: Herb Pederson, Brian Ahern\n
EXTT6=Supporting vocals: Fayssoux Starling, Dianne Brooks
EXTT7=Supporting vocals: Rodney Crowell, Emory Gordy
EXTT8=Acoustic Guitars: Bernie Leadon, Emmylou Harris\n
EXTT8=Supporting vocals: Rodney Crowell, Herb Pederson
EXTT9=Acoustic Guitars: Emmylou Harris, Brian Ahern\n
EXTT9=Supporting vocals: Herb Pederson, Fayssoux Starling
EXTT10=Acoustic Guitars: John Starling, Emmylou Harris\n
EXTT10=Supporting vocals: John Starling, Fayssoux Starling
EXTT11=Supporting vocals: Jonathan Edwards, Herb Pederson
PLAYORDER=
